G04 #@! TF.GenerationSoftware,KiCad,Pcbnew,8.0.6*
G04 #@! TF.CreationDate,2025-06-16T17:53:41-06:00*
G04 #@! TF.ProjectId,GuitarAmplifier,47756974-6172-4416-9d70-6c6966696572,0*
G04 #@! TF.SameCoordinates,Original*
G04 #@! TF.FileFunction,Soldermask,Top*
G04 #@! TF.FilePolarity,Negative*
%FSLAX46Y46*%
G04 Gerber Fmt 4.6, Leading zero omitted, Abs format (unit mm)*
G04 Created by KiCad (PCBNEW 8.0.6) date 2025-06-16 17:53:41*
%MOMM*%
%LPD*%
G01*
G04 APERTURE LIST*
%ADD10C,2.000000*%
%ADD11C,1.600000*%
%ADD12O,1.600000X1.600000*%
%ADD13C,3.200000*%
%ADD14R,3.000000X3.000000*%
%ADD15C,3.000000*%
%ADD16C,2.340000*%
%ADD17R,1.600000X1.600000*%
%ADD18R,2.200000X2.200000*%
%ADD19O,2.200000X2.200000*%
G04 APERTURE END LIST*
D10*
X168750000Y-127500000D03*
X176250000Y-127500000D03*
D11*
X138880000Y-145000000D03*
D12*
X146500000Y-145000000D03*
D10*
X182600000Y-118250000D03*
X182600000Y-125750000D03*
D13*
X254000000Y-165000000D03*
D11*
X151880000Y-119000000D03*
D12*
X159500000Y-119000000D03*
D10*
X235000000Y-140500000D03*
X235000000Y-148000000D03*
X201000000Y-138000000D03*
X196000000Y-138000000D03*
D13*
X105000000Y-118000000D03*
D10*
X183750000Y-138000000D03*
X191250000Y-138000000D03*
X140000000Y-129500000D03*
X145000000Y-129500000D03*
X227000000Y-148500000D03*
X222000000Y-148500000D03*
D11*
X129810000Y-133500000D03*
D12*
X122190000Y-133500000D03*
D14*
X243000000Y-163280000D03*
D15*
X243000000Y-158200000D03*
D14*
X118790000Y-122500000D03*
D15*
X113710000Y-122500000D03*
D16*
X201600000Y-118400000D03*
X196600000Y-118400000D03*
X191600000Y-118400000D03*
D10*
X233750000Y-131000000D03*
X238750000Y-131000000D03*
D11*
X127000000Y-120690000D03*
D12*
X127000000Y-128310000D03*
D11*
X241500000Y-140500000D03*
D12*
X241500000Y-148120000D03*
D15*
X113385000Y-155085000D03*
X129615000Y-155085000D03*
X113385000Y-148735000D03*
X129615000Y-148735000D03*
X113385000Y-161435000D03*
X129615000Y-161435000D03*
D10*
X247750000Y-132000000D03*
X252750000Y-132000000D03*
D13*
X253500000Y-118000000D03*
D10*
X116500000Y-132500000D03*
X111500000Y-132500000D03*
X227000000Y-139000000D03*
X222000000Y-139000000D03*
D11*
X218810000Y-119500000D03*
D12*
X211190000Y-119500000D03*
D16*
X159200000Y-163400000D03*
X164200000Y-163400000D03*
X169200000Y-163400000D03*
D11*
X183190000Y-130500000D03*
D12*
X190810000Y-130500000D03*
D16*
X179600000Y-163400000D03*
X184600000Y-163400000D03*
X189600000Y-163400000D03*
D14*
X230080000Y-161600000D03*
D15*
X225000000Y-161600000D03*
X219920000Y-161600000D03*
D11*
X194880000Y-130500000D03*
D12*
X202500000Y-130500000D03*
D17*
X208380000Y-139200000D03*
D12*
X208380000Y-141740000D03*
X208380000Y-144280000D03*
X208380000Y-146820000D03*
X216000000Y-146820000D03*
X216000000Y-144280000D03*
X216000000Y-141740000D03*
X216000000Y-139200000D03*
D10*
X193250000Y-148500000D03*
X200750000Y-148500000D03*
X145000000Y-120000000D03*
X140000000Y-120000000D03*
D11*
X168500000Y-134500000D03*
D12*
X168500000Y-142120000D03*
D10*
X168000000Y-148500000D03*
X173000000Y-148500000D03*
D11*
X176310000Y-119000000D03*
D12*
X168690000Y-119000000D03*
D11*
X186310000Y-148500000D03*
D12*
X178690000Y-148500000D03*
D17*
X246450000Y-141700000D03*
D12*
X246450000Y-144240000D03*
X246450000Y-146780000D03*
X246450000Y-149320000D03*
X254070000Y-149320000D03*
X254070000Y-146780000D03*
X254070000Y-144240000D03*
X254070000Y-141700000D03*
D10*
X176500000Y-140500000D03*
X176500000Y-135500000D03*
X234000000Y-121000000D03*
X239000000Y-121000000D03*
D18*
X210000000Y-126500000D03*
D19*
X220160000Y-126500000D03*
D16*
X200800000Y-163200000D03*
X205800000Y-163200000D03*
X210800000Y-163200000D03*
D11*
X138880000Y-138000000D03*
D12*
X146500000Y-138000000D03*
D13*
X105000000Y-165000000D03*
D16*
X139000000Y-163400000D03*
X144000000Y-163400000D03*
X149000000Y-163400000D03*
D17*
X159500000Y-134580000D03*
D12*
X159500000Y-132040000D03*
X159500000Y-129500000D03*
X159500000Y-126960000D03*
X151880000Y-126960000D03*
X151880000Y-129500000D03*
X151880000Y-132040000D03*
X151880000Y-134580000D03*
M02*
