M48
; DRILL file {KiCad 8.0.6} date 2025-09-24T23:59:47-0600
; FORMAT={-:-/ absolute / metric / decimal}
; #@! TF.CreationDate,2025-09-24T23:59:47-06:00
; #@! TF.GenerationSoftware,Kicad,Pcbnew,8.0.6
; #@! TF.FileFunction,Plated,1,4,PTH
FMAT,2
METRIC
; #@! TA.AperFunction,Plated,PTH,ViaDrill
T1C0.400
; #@! TA.AperFunction,Plated,PTH,ComponentDrill
T2C0.800
; #@! TA.AperFunction,Plated,PTH,ComponentDrill
T3C1.000
; #@! TA.AperFunction,Plated,PTH,ComponentDrill
T4C1.100
; #@! TA.AperFunction,Plated,PTH,ComponentDrill
T5C1.300
; #@! TA.AperFunction,Plated,PTH,ComponentDrill
T6C1.400
; #@! TA.AperFunction,Plated,PTH,ComponentDrill
T7C1.520
%
G90
G05
T1
X156.8Y-127.0
X248.5Y-144.5
T2
X122.19Y-133.5
X127.0Y-120.69
X127.0Y-128.31
X129.81Y-133.5
X138.88Y-138.0
X138.88Y-145.0
X146.5Y-138.0
X146.5Y-145.0
X151.88Y-119.0
X151.88Y-126.96
X151.88Y-129.5
X151.88Y-132.04
X151.88Y-134.58
X159.5Y-119.0
X159.5Y-126.96
X159.5Y-129.5
X159.5Y-132.04
X159.5Y-134.58
X168.5Y-134.5
X168.5Y-142.12
X168.69Y-119.0
X176.31Y-119.0
X178.69Y-148.5
X183.19Y-130.5
X186.31Y-148.5
X190.81Y-130.5
X194.88Y-130.5
X202.5Y-130.5
X208.38Y-139.2
X208.38Y-141.74
X208.38Y-144.28
X208.38Y-146.82
X211.19Y-119.5
X216.0Y-139.2
X216.0Y-141.74
X216.0Y-144.28
X216.0Y-146.82
X218.81Y-119.5
X241.5Y-140.5
X241.5Y-148.12
X246.45Y-141.7
X246.45Y-144.24
X246.45Y-146.78
X246.45Y-149.32
X254.07Y-141.7
X254.07Y-144.24
X254.07Y-146.78
X254.07Y-149.32
T3
X111.5Y-132.5
X116.5Y-132.5
X140.0Y-120.0
X140.0Y-129.5
X145.0Y-120.0
X145.0Y-129.5
X168.0Y-148.5
X168.75Y-127.5
X173.0Y-148.5
X176.25Y-127.5
X176.5Y-135.5
X176.5Y-140.5
X182.6Y-118.25
X182.6Y-125.75
X183.75Y-138.0
X191.25Y-138.0
X193.25Y-148.5
X196.0Y-138.0
X200.75Y-148.5
X201.0Y-138.0
X222.0Y-139.0
X222.0Y-148.5
X227.0Y-139.0
X227.0Y-148.5
X233.75Y-131.0
X234.0Y-121.0
X235.0Y-140.5
X235.0Y-148.0
X238.75Y-131.0
X239.0Y-121.0
X247.75Y-132.0
X252.75Y-132.0
T4
X210.0Y-126.5
X220.16Y-126.5
T5
X139.0Y-163.4
X144.0Y-163.4
X149.0Y-163.4
X159.2Y-163.4
X164.2Y-163.4
X169.2Y-163.4
X179.6Y-163.4
X184.6Y-163.4
X189.6Y-163.4
X191.6Y-118.4
X196.6Y-118.4
X200.8Y-163.2
X201.6Y-118.4
X205.8Y-163.2
X210.8Y-163.2
T6
X113.385Y-148.735
X113.385Y-155.085
X113.385Y-161.435
X129.615Y-148.735
X129.615Y-155.085
X129.615Y-161.435
T7
X113.71Y-122.5
X118.79Y-122.5
X219.8Y-161.6
X224.88Y-161.6
X229.96Y-161.6
X243.0Y-158.2
X243.0Y-163.28
M30
