G04 #@! TF.GenerationSoftware,KiCad,Pcbnew,8.0.6*
G04 #@! TF.CreationDate,2025-09-24T23:59:31-06:00*
G04 #@! TF.ProjectId,GuitarAmplifier,47756974-6172-4416-9d70-6c6966696572,0*
G04 #@! TF.SameCoordinates,Original*
G04 #@! TF.FileFunction,Legend,Bot*
G04 #@! TF.FilePolarity,Positive*
%FSLAX46Y46*%
G04 Gerber Fmt 4.6, Leading zero omitted, Abs format (unit mm)*
G04 Created by KiCad (PCBNEW 8.0.6) date 2025-09-24 23:59:31*
%MOMM*%
%LPD*%
G01*
G04 APERTURE LIST*
%ADD10C,0.375000*%
%ADD11C,0.400000*%
%ADD12C,0.000000*%
%ADD13C,2.000000*%
%ADD14C,1.600000*%
%ADD15O,1.600000X1.600000*%
%ADD16C,3.200000*%
%ADD17R,3.000000X3.000000*%
%ADD18C,3.000000*%
%ADD19C,2.340000*%
%ADD20R,1.600000X1.600000*%
%ADD21R,2.200000X2.200000*%
%ADD22O,2.200000X2.200000*%
G04 APERTURE END LIST*
D10*
X175839004Y-167935738D02*
X175839004Y-166602404D01*
X175839004Y-166983357D02*
X175696147Y-166792880D01*
X175696147Y-166792880D02*
X175553290Y-166697642D01*
X175553290Y-166697642D02*
X175267575Y-166602404D01*
X175267575Y-166602404D02*
X174981861Y-166602404D01*
X173981861Y-167935738D02*
X173981861Y-166602404D01*
X173981861Y-166792880D02*
X173839004Y-166697642D01*
X173839004Y-166697642D02*
X173553289Y-166602404D01*
X173553289Y-166602404D02*
X173124718Y-166602404D01*
X173124718Y-166602404D02*
X172839004Y-166697642D01*
X172839004Y-166697642D02*
X172696147Y-166888119D01*
X172696147Y-166888119D02*
X172696147Y-167935738D01*
X172696147Y-166888119D02*
X172553289Y-166697642D01*
X172553289Y-166697642D02*
X172267575Y-166602404D01*
X172267575Y-166602404D02*
X171839004Y-166602404D01*
X171839004Y-166602404D02*
X171553289Y-166697642D01*
X171553289Y-166697642D02*
X171410432Y-166888119D01*
X171410432Y-166888119D02*
X171410432Y-167935738D01*
X168696147Y-167935738D02*
X168696147Y-166888119D01*
X168696147Y-166888119D02*
X168839004Y-166697642D01*
X168839004Y-166697642D02*
X169124718Y-166602404D01*
X169124718Y-166602404D02*
X169696147Y-166602404D01*
X169696147Y-166602404D02*
X169981861Y-166697642D01*
X168696147Y-167840500D02*
X168981861Y-167935738D01*
X168981861Y-167935738D02*
X169696147Y-167935738D01*
X169696147Y-167935738D02*
X169981861Y-167840500D01*
X169981861Y-167840500D02*
X170124718Y-167650023D01*
X170124718Y-167650023D02*
X170124718Y-167459547D01*
X170124718Y-167459547D02*
X169981861Y-167269071D01*
X169981861Y-167269071D02*
X169696147Y-167173833D01*
X169696147Y-167173833D02*
X168981861Y-167173833D01*
X168981861Y-167173833D02*
X168696147Y-167078595D01*
X165981861Y-167935738D02*
X165981861Y-165935738D01*
X165981861Y-167840500D02*
X166267575Y-167935738D01*
X166267575Y-167935738D02*
X166839003Y-167935738D01*
X166839003Y-167935738D02*
X167124718Y-167840500D01*
X167124718Y-167840500D02*
X167267575Y-167745261D01*
X167267575Y-167745261D02*
X167410432Y-167554785D01*
X167410432Y-167554785D02*
X167410432Y-166983357D01*
X167410432Y-166983357D02*
X167267575Y-166792880D01*
X167267575Y-166792880D02*
X167124718Y-166697642D01*
X167124718Y-166697642D02*
X166839003Y-166602404D01*
X166839003Y-166602404D02*
X166267575Y-166602404D01*
X166267575Y-166602404D02*
X165981861Y-166697642D01*
X164553289Y-167935738D02*
X164553289Y-166602404D01*
X164553289Y-166983357D02*
X164410432Y-166792880D01*
X164410432Y-166792880D02*
X164267575Y-166697642D01*
X164267575Y-166697642D02*
X163981860Y-166602404D01*
X163981860Y-166602404D02*
X163696146Y-166602404D01*
X162696146Y-167935738D02*
X162696146Y-166602404D01*
X162696146Y-165935738D02*
X162839003Y-166030976D01*
X162839003Y-166030976D02*
X162696146Y-166126214D01*
X162696146Y-166126214D02*
X162553289Y-166030976D01*
X162553289Y-166030976D02*
X162696146Y-165935738D01*
X162696146Y-165935738D02*
X162696146Y-166126214D01*
X159981861Y-166602404D02*
X159981861Y-168221452D01*
X159981861Y-168221452D02*
X160124718Y-168411928D01*
X160124718Y-168411928D02*
X160267575Y-168507166D01*
X160267575Y-168507166D02*
X160553289Y-168602404D01*
X160553289Y-168602404D02*
X160981861Y-168602404D01*
X160981861Y-168602404D02*
X161267575Y-168507166D01*
X159981861Y-167840500D02*
X160267575Y-167935738D01*
X160267575Y-167935738D02*
X160839003Y-167935738D01*
X160839003Y-167935738D02*
X161124718Y-167840500D01*
X161124718Y-167840500D02*
X161267575Y-167745261D01*
X161267575Y-167745261D02*
X161410432Y-167554785D01*
X161410432Y-167554785D02*
X161410432Y-166983357D01*
X161410432Y-166983357D02*
X161267575Y-166792880D01*
X161267575Y-166792880D02*
X161124718Y-166697642D01*
X161124718Y-166697642D02*
X160839003Y-166602404D01*
X160839003Y-166602404D02*
X160267575Y-166602404D01*
X160267575Y-166602404D02*
X159981861Y-166697642D01*
X157267575Y-167935738D02*
X157267575Y-166888119D01*
X157267575Y-166888119D02*
X157410432Y-166697642D01*
X157410432Y-166697642D02*
X157696146Y-166602404D01*
X157696146Y-166602404D02*
X158267575Y-166602404D01*
X158267575Y-166602404D02*
X158553289Y-166697642D01*
X157267575Y-167840500D02*
X157553289Y-167935738D01*
X157553289Y-167935738D02*
X158267575Y-167935738D01*
X158267575Y-167935738D02*
X158553289Y-167840500D01*
X158553289Y-167840500D02*
X158696146Y-167650023D01*
X158696146Y-167650023D02*
X158696146Y-167459547D01*
X158696146Y-167459547D02*
X158553289Y-167269071D01*
X158553289Y-167269071D02*
X158267575Y-167173833D01*
X158267575Y-167173833D02*
X157553289Y-167173833D01*
X157553289Y-167173833D02*
X157267575Y-167078595D01*
X155410431Y-167935738D02*
X155696146Y-167840500D01*
X155696146Y-167840500D02*
X155839003Y-167650023D01*
X155839003Y-167650023D02*
X155839003Y-165935738D01*
X154267574Y-167935738D02*
X154267574Y-166602404D01*
X154267574Y-166792880D02*
X154124717Y-166697642D01*
X154124717Y-166697642D02*
X153839002Y-166602404D01*
X153839002Y-166602404D02*
X153410431Y-166602404D01*
X153410431Y-166602404D02*
X153124717Y-166697642D01*
X153124717Y-166697642D02*
X152981860Y-166888119D01*
X152981860Y-166888119D02*
X152981860Y-167935738D01*
X152981860Y-166888119D02*
X152839002Y-166697642D01*
X152839002Y-166697642D02*
X152553288Y-166602404D01*
X152553288Y-166602404D02*
X152124717Y-166602404D01*
X152124717Y-166602404D02*
X151839002Y-166697642D01*
X151839002Y-166697642D02*
X151696145Y-166888119D01*
X151696145Y-166888119D02*
X151696145Y-167935738D01*
X149839002Y-167935738D02*
X150124717Y-167840500D01*
X150124717Y-167840500D02*
X150267574Y-167745261D01*
X150267574Y-167745261D02*
X150410431Y-167554785D01*
X150410431Y-167554785D02*
X150410431Y-166983357D01*
X150410431Y-166983357D02*
X150267574Y-166792880D01*
X150267574Y-166792880D02*
X150124717Y-166697642D01*
X150124717Y-166697642D02*
X149839002Y-166602404D01*
X149839002Y-166602404D02*
X149410431Y-166602404D01*
X149410431Y-166602404D02*
X149124717Y-166697642D01*
X149124717Y-166697642D02*
X148981860Y-166792880D01*
X148981860Y-166792880D02*
X148839002Y-166983357D01*
X148839002Y-166983357D02*
X148839002Y-167554785D01*
X148839002Y-167554785D02*
X148981860Y-167745261D01*
X148981860Y-167745261D02*
X149124717Y-167840500D01*
X149124717Y-167840500D02*
X149410431Y-167935738D01*
X149410431Y-167935738D02*
X149839002Y-167935738D01*
X147553288Y-166602404D02*
X147553288Y-167935738D01*
X147553288Y-166792880D02*
X147410431Y-166697642D01*
X147410431Y-166697642D02*
X147124716Y-166602404D01*
X147124716Y-166602404D02*
X146696145Y-166602404D01*
X146696145Y-166602404D02*
X146410431Y-166697642D01*
X146410431Y-166697642D02*
X146267574Y-166888119D01*
X146267574Y-166888119D02*
X146267574Y-167935738D01*
X145267573Y-166602404D02*
X144124716Y-166602404D01*
X144839002Y-165935738D02*
X144839002Y-167650023D01*
X144839002Y-167650023D02*
X144696145Y-167840500D01*
X144696145Y-167840500D02*
X144410430Y-167935738D01*
X144410430Y-167935738D02*
X144124716Y-167935738D01*
X141981859Y-167840500D02*
X142267573Y-167935738D01*
X142267573Y-167935738D02*
X142839002Y-167935738D01*
X142839002Y-167935738D02*
X143124716Y-167840500D01*
X143124716Y-167840500D02*
X143267573Y-167650023D01*
X143267573Y-167650023D02*
X143267573Y-166888119D01*
X143267573Y-166888119D02*
X143124716Y-166697642D01*
X143124716Y-166697642D02*
X142839002Y-166602404D01*
X142839002Y-166602404D02*
X142267573Y-166602404D01*
X142267573Y-166602404D02*
X141981859Y-166697642D01*
X141981859Y-166697642D02*
X141839002Y-166888119D01*
X141839002Y-166888119D02*
X141839002Y-167078595D01*
X141839002Y-167078595D02*
X143267573Y-167269071D01*
X140696144Y-167840500D02*
X140410430Y-167935738D01*
X140410430Y-167935738D02*
X139839001Y-167935738D01*
X139839001Y-167935738D02*
X139553287Y-167840500D01*
X139553287Y-167840500D02*
X139410430Y-167650023D01*
X139410430Y-167650023D02*
X139410430Y-167554785D01*
X139410430Y-167554785D02*
X139553287Y-167364309D01*
X139553287Y-167364309D02*
X139839001Y-167269071D01*
X139839001Y-167269071D02*
X140267573Y-167269071D01*
X140267573Y-167269071D02*
X140553287Y-167173833D01*
X140553287Y-167173833D02*
X140696144Y-166983357D01*
X140696144Y-166983357D02*
X140696144Y-166888119D01*
X140696144Y-166888119D02*
X140553287Y-166697642D01*
X140553287Y-166697642D02*
X140267573Y-166602404D01*
X140267573Y-166602404D02*
X139839001Y-166602404D01*
X139839001Y-166602404D02*
X139553287Y-166697642D01*
X136267573Y-166983357D02*
X136410430Y-166888119D01*
X136410430Y-166888119D02*
X136696144Y-166792880D01*
X136696144Y-166792880D02*
X136981859Y-166792880D01*
X136981859Y-166792880D02*
X137267573Y-166888119D01*
X137267573Y-166888119D02*
X137410430Y-166983357D01*
X137410430Y-166983357D02*
X137553287Y-167173833D01*
X137553287Y-167173833D02*
X137553287Y-167364309D01*
X137553287Y-167364309D02*
X137410430Y-167554785D01*
X137410430Y-167554785D02*
X137267573Y-167650023D01*
X137267573Y-167650023D02*
X136981859Y-167745261D01*
X136981859Y-167745261D02*
X136696144Y-167745261D01*
X136696144Y-167745261D02*
X136410430Y-167650023D01*
X136410430Y-167650023D02*
X136267573Y-167554785D01*
X136267573Y-166792880D02*
X136267573Y-167554785D01*
X136267573Y-167554785D02*
X136124716Y-167650023D01*
X136124716Y-167650023D02*
X135981859Y-167650023D01*
X135981859Y-167650023D02*
X135696144Y-167554785D01*
X135696144Y-167554785D02*
X135553287Y-167364309D01*
X135553287Y-167364309D02*
X135553287Y-166888119D01*
X135553287Y-166888119D02*
X135839002Y-166602404D01*
X135839002Y-166602404D02*
X136267573Y-166411928D01*
X136267573Y-166411928D02*
X136839002Y-166316690D01*
X136839002Y-166316690D02*
X137410430Y-166411928D01*
X137410430Y-166411928D02*
X137839002Y-166602404D01*
X137839002Y-166602404D02*
X138124716Y-166888119D01*
X138124716Y-166888119D02*
X138267573Y-167269071D01*
X138267573Y-167269071D02*
X138124716Y-167650023D01*
X138124716Y-167650023D02*
X137839002Y-167935738D01*
X137839002Y-167935738D02*
X137410430Y-168126214D01*
X137410430Y-168126214D02*
X136839002Y-168221452D01*
X136839002Y-168221452D02*
X136267573Y-168126214D01*
X136267573Y-168126214D02*
X135839002Y-167935738D01*
X132981859Y-166602404D02*
X132981859Y-168221452D01*
X132981859Y-168221452D02*
X133124716Y-168411928D01*
X133124716Y-168411928D02*
X133267573Y-168507166D01*
X133267573Y-168507166D02*
X133553287Y-168602404D01*
X133553287Y-168602404D02*
X133981859Y-168602404D01*
X133981859Y-168602404D02*
X134267573Y-168507166D01*
X132981859Y-167840500D02*
X133267573Y-167935738D01*
X133267573Y-167935738D02*
X133839001Y-167935738D01*
X133839001Y-167935738D02*
X134124716Y-167840500D01*
X134124716Y-167840500D02*
X134267573Y-167745261D01*
X134267573Y-167745261D02*
X134410430Y-167554785D01*
X134410430Y-167554785D02*
X134410430Y-166983357D01*
X134410430Y-166983357D02*
X134267573Y-166792880D01*
X134267573Y-166792880D02*
X134124716Y-166697642D01*
X134124716Y-166697642D02*
X133839001Y-166602404D01*
X133839001Y-166602404D02*
X133267573Y-166602404D01*
X133267573Y-166602404D02*
X132981859Y-166697642D01*
X131553287Y-167935738D02*
X131553287Y-166602404D01*
X131553287Y-166792880D02*
X131410430Y-166697642D01*
X131410430Y-166697642D02*
X131124715Y-166602404D01*
X131124715Y-166602404D02*
X130696144Y-166602404D01*
X130696144Y-166602404D02*
X130410430Y-166697642D01*
X130410430Y-166697642D02*
X130267573Y-166888119D01*
X130267573Y-166888119D02*
X130267573Y-167935738D01*
X130267573Y-166888119D02*
X130124715Y-166697642D01*
X130124715Y-166697642D02*
X129839001Y-166602404D01*
X129839001Y-166602404D02*
X129410430Y-166602404D01*
X129410430Y-166602404D02*
X129124715Y-166697642D01*
X129124715Y-166697642D02*
X128981858Y-166888119D01*
X128981858Y-166888119D02*
X128981858Y-167935738D01*
X126267573Y-167935738D02*
X126267573Y-166888119D01*
X126267573Y-166888119D02*
X126410430Y-166697642D01*
X126410430Y-166697642D02*
X126696144Y-166602404D01*
X126696144Y-166602404D02*
X127267573Y-166602404D01*
X127267573Y-166602404D02*
X127553287Y-166697642D01*
X126267573Y-167840500D02*
X126553287Y-167935738D01*
X126553287Y-167935738D02*
X127267573Y-167935738D01*
X127267573Y-167935738D02*
X127553287Y-167840500D01*
X127553287Y-167840500D02*
X127696144Y-167650023D01*
X127696144Y-167650023D02*
X127696144Y-167459547D01*
X127696144Y-167459547D02*
X127553287Y-167269071D01*
X127553287Y-167269071D02*
X127267573Y-167173833D01*
X127267573Y-167173833D02*
X126553287Y-167173833D01*
X126553287Y-167173833D02*
X126267573Y-167078595D01*
X124839001Y-167935738D02*
X124839001Y-166602404D01*
X124839001Y-165935738D02*
X124981858Y-166030976D01*
X124981858Y-166030976D02*
X124839001Y-166126214D01*
X124839001Y-166126214D02*
X124696144Y-166030976D01*
X124696144Y-166030976D02*
X124839001Y-165935738D01*
X124839001Y-165935738D02*
X124839001Y-166126214D01*
X122981858Y-167935738D02*
X123267573Y-167840500D01*
X123267573Y-167840500D02*
X123410430Y-167650023D01*
X123410430Y-167650023D02*
X123410430Y-165935738D01*
X121839001Y-167745261D02*
X121696144Y-167840500D01*
X121696144Y-167840500D02*
X121839001Y-167935738D01*
X121839001Y-167935738D02*
X121981858Y-167840500D01*
X121981858Y-167840500D02*
X121839001Y-167745261D01*
X121839001Y-167745261D02*
X121839001Y-167935738D01*
X119124716Y-167840500D02*
X119410430Y-167935738D01*
X119410430Y-167935738D02*
X119981858Y-167935738D01*
X119981858Y-167935738D02*
X120267573Y-167840500D01*
X120267573Y-167840500D02*
X120410430Y-167745261D01*
X120410430Y-167745261D02*
X120553287Y-167554785D01*
X120553287Y-167554785D02*
X120553287Y-166983357D01*
X120553287Y-166983357D02*
X120410430Y-166792880D01*
X120410430Y-166792880D02*
X120267573Y-166697642D01*
X120267573Y-166697642D02*
X119981858Y-166602404D01*
X119981858Y-166602404D02*
X119410430Y-166602404D01*
X119410430Y-166602404D02*
X119124716Y-166697642D01*
X117410429Y-167935738D02*
X117696144Y-167840500D01*
X117696144Y-167840500D02*
X117839001Y-167745261D01*
X117839001Y-167745261D02*
X117981858Y-167554785D01*
X117981858Y-167554785D02*
X117981858Y-166983357D01*
X117981858Y-166983357D02*
X117839001Y-166792880D01*
X117839001Y-166792880D02*
X117696144Y-166697642D01*
X117696144Y-166697642D02*
X117410429Y-166602404D01*
X117410429Y-166602404D02*
X116981858Y-166602404D01*
X116981858Y-166602404D02*
X116696144Y-166697642D01*
X116696144Y-166697642D02*
X116553287Y-166792880D01*
X116553287Y-166792880D02*
X116410429Y-166983357D01*
X116410429Y-166983357D02*
X116410429Y-167554785D01*
X116410429Y-167554785D02*
X116553287Y-167745261D01*
X116553287Y-167745261D02*
X116696144Y-167840500D01*
X116696144Y-167840500D02*
X116981858Y-167935738D01*
X116981858Y-167935738D02*
X117410429Y-167935738D01*
X115124715Y-167935738D02*
X115124715Y-166602404D01*
X115124715Y-166792880D02*
X114981858Y-166697642D01*
X114981858Y-166697642D02*
X114696143Y-166602404D01*
X114696143Y-166602404D02*
X114267572Y-166602404D01*
X114267572Y-166602404D02*
X113981858Y-166697642D01*
X113981858Y-166697642D02*
X113839001Y-166888119D01*
X113839001Y-166888119D02*
X113839001Y-167935738D01*
X113839001Y-166888119D02*
X113696143Y-166697642D01*
X113696143Y-166697642D02*
X113410429Y-166602404D01*
X113410429Y-166602404D02*
X112981858Y-166602404D01*
X112981858Y-166602404D02*
X112696143Y-166697642D01*
X112696143Y-166697642D02*
X112553286Y-166888119D01*
X112553286Y-166888119D02*
X112553286Y-167935738D01*
D11*
X163236843Y-115534438D02*
X163236843Y-114486819D01*
X163236843Y-114486819D02*
X163379700Y-114296342D01*
X163379700Y-114296342D02*
X163665414Y-114201104D01*
X163665414Y-114201104D02*
X164236843Y-114201104D01*
X164236843Y-114201104D02*
X164522557Y-114296342D01*
X163236843Y-115439200D02*
X163522557Y-115534438D01*
X163522557Y-115534438D02*
X164236843Y-115534438D01*
X164236843Y-115534438D02*
X164522557Y-115439200D01*
X164522557Y-115439200D02*
X164665414Y-115248723D01*
X164665414Y-115248723D02*
X164665414Y-115058247D01*
X164665414Y-115058247D02*
X164522557Y-114867771D01*
X164522557Y-114867771D02*
X164236843Y-114772533D01*
X164236843Y-114772533D02*
X163522557Y-114772533D01*
X163522557Y-114772533D02*
X163236843Y-114677295D01*
X161808271Y-114201104D02*
X161808271Y-115534438D01*
X161808271Y-114391580D02*
X161665414Y-114296342D01*
X161665414Y-114296342D02*
X161379699Y-114201104D01*
X161379699Y-114201104D02*
X160951128Y-114201104D01*
X160951128Y-114201104D02*
X160665414Y-114296342D01*
X160665414Y-114296342D02*
X160522557Y-114486819D01*
X160522557Y-114486819D02*
X160522557Y-115534438D01*
X159522556Y-114201104D02*
X158379699Y-114201104D01*
X159093985Y-113534438D02*
X159093985Y-115248723D01*
X159093985Y-115248723D02*
X158951128Y-115439200D01*
X158951128Y-115439200D02*
X158665413Y-115534438D01*
X158665413Y-115534438D02*
X158379699Y-115534438D01*
X157379699Y-115534438D02*
X157379699Y-113534438D01*
X156093985Y-115534438D02*
X156093985Y-114486819D01*
X156093985Y-114486819D02*
X156236842Y-114296342D01*
X156236842Y-114296342D02*
X156522556Y-114201104D01*
X156522556Y-114201104D02*
X156951127Y-114201104D01*
X156951127Y-114201104D02*
X157236842Y-114296342D01*
X157236842Y-114296342D02*
X157379699Y-114391580D01*
X154236841Y-115534438D02*
X154522556Y-115439200D01*
X154522556Y-115439200D02*
X154665413Y-115343961D01*
X154665413Y-115343961D02*
X154808270Y-115153485D01*
X154808270Y-115153485D02*
X154808270Y-114582057D01*
X154808270Y-114582057D02*
X154665413Y-114391580D01*
X154665413Y-114391580D02*
X154522556Y-114296342D01*
X154522556Y-114296342D02*
X154236841Y-114201104D01*
X154236841Y-114201104D02*
X153808270Y-114201104D01*
X153808270Y-114201104D02*
X153522556Y-114296342D01*
X153522556Y-114296342D02*
X153379699Y-114391580D01*
X153379699Y-114391580D02*
X153236841Y-114582057D01*
X153236841Y-114582057D02*
X153236841Y-115153485D01*
X153236841Y-115153485D02*
X153379699Y-115343961D01*
X153379699Y-115343961D02*
X153522556Y-115439200D01*
X153522556Y-115439200D02*
X153808270Y-115534438D01*
X153808270Y-115534438D02*
X154236841Y-115534438D01*
X151951127Y-114201104D02*
X151951127Y-115534438D01*
X151951127Y-114391580D02*
X151808270Y-114296342D01*
X151808270Y-114296342D02*
X151522555Y-114201104D01*
X151522555Y-114201104D02*
X151093984Y-114201104D01*
X151093984Y-114201104D02*
X150808270Y-114296342D01*
X150808270Y-114296342D02*
X150665413Y-114486819D01*
X150665413Y-114486819D02*
X150665413Y-115534438D01*
X149522555Y-114201104D02*
X148808269Y-115534438D01*
X148093984Y-114201104D02*
X148808269Y-115534438D01*
X148808269Y-115534438D02*
X149093984Y-116010628D01*
X149093984Y-116010628D02*
X149236841Y-116105866D01*
X149236841Y-116105866D02*
X149522555Y-116201104D01*
X145665413Y-115439200D02*
X145951127Y-115534438D01*
X145951127Y-115534438D02*
X146522555Y-115534438D01*
X146522555Y-115534438D02*
X146808270Y-115439200D01*
X146808270Y-115439200D02*
X146951127Y-115343961D01*
X146951127Y-115343961D02*
X147093984Y-115153485D01*
X147093984Y-115153485D02*
X147093984Y-114582057D01*
X147093984Y-114582057D02*
X146951127Y-114391580D01*
X146951127Y-114391580D02*
X146808270Y-114296342D01*
X146808270Y-114296342D02*
X146522555Y-114201104D01*
X146522555Y-114201104D02*
X145951127Y-114201104D01*
X145951127Y-114201104D02*
X145665413Y-114296342D01*
X143093984Y-115534438D02*
X143093984Y-114486819D01*
X143093984Y-114486819D02*
X143236841Y-114296342D01*
X143236841Y-114296342D02*
X143522555Y-114201104D01*
X143522555Y-114201104D02*
X144093984Y-114201104D01*
X144093984Y-114201104D02*
X144379698Y-114296342D01*
X143093984Y-115439200D02*
X143379698Y-115534438D01*
X143379698Y-115534438D02*
X144093984Y-115534438D01*
X144093984Y-115534438D02*
X144379698Y-115439200D01*
X144379698Y-115439200D02*
X144522555Y-115248723D01*
X144522555Y-115248723D02*
X144522555Y-115058247D01*
X144522555Y-115058247D02*
X144379698Y-114867771D01*
X144379698Y-114867771D02*
X144093984Y-114772533D01*
X144093984Y-114772533D02*
X143379698Y-114772533D01*
X143379698Y-114772533D02*
X143093984Y-114677295D01*
X141236840Y-115534438D02*
X141522555Y-115439200D01*
X141522555Y-115439200D02*
X141665412Y-115248723D01*
X141665412Y-115248723D02*
X141665412Y-113534438D01*
X140379697Y-114201104D02*
X139665411Y-115534438D01*
X139665411Y-115534438D02*
X138951126Y-114201104D01*
X137379697Y-115534438D02*
X137665412Y-115439200D01*
X137665412Y-115439200D02*
X137808269Y-115343961D01*
X137808269Y-115343961D02*
X137951126Y-115153485D01*
X137951126Y-115153485D02*
X137951126Y-114582057D01*
X137951126Y-114582057D02*
X137808269Y-114391580D01*
X137808269Y-114391580D02*
X137665412Y-114296342D01*
X137665412Y-114296342D02*
X137379697Y-114201104D01*
X137379697Y-114201104D02*
X136951126Y-114201104D01*
X136951126Y-114201104D02*
X136665412Y-114296342D01*
X136665412Y-114296342D02*
X136522555Y-114391580D01*
X136522555Y-114391580D02*
X136379697Y-114582057D01*
X136379697Y-114582057D02*
X136379697Y-115153485D01*
X136379697Y-115153485D02*
X136522555Y-115343961D01*
X136522555Y-115343961D02*
X136665412Y-115439200D01*
X136665412Y-115439200D02*
X136951126Y-115534438D01*
X136951126Y-115534438D02*
X137379697Y-115534438D01*
X133665411Y-113534438D02*
X135093983Y-113534438D01*
X135093983Y-113534438D02*
X135236840Y-114486819D01*
X135236840Y-114486819D02*
X135093983Y-114391580D01*
X135093983Y-114391580D02*
X134808269Y-114296342D01*
X134808269Y-114296342D02*
X134093983Y-114296342D01*
X134093983Y-114296342D02*
X133808269Y-114391580D01*
X133808269Y-114391580D02*
X133665411Y-114486819D01*
X133665411Y-114486819D02*
X133522554Y-114677295D01*
X133522554Y-114677295D02*
X133522554Y-115153485D01*
X133522554Y-115153485D02*
X133665411Y-115343961D01*
X133665411Y-115343961D02*
X133808269Y-115439200D01*
X133808269Y-115439200D02*
X134093983Y-115534438D01*
X134093983Y-115534438D02*
X134808269Y-115534438D01*
X134808269Y-115534438D02*
X135093983Y-115439200D01*
X135093983Y-115439200D02*
X135236840Y-115343961D01*
X131665411Y-113534438D02*
X131379697Y-113534438D01*
X131379697Y-113534438D02*
X131093983Y-113629676D01*
X131093983Y-113629676D02*
X130951126Y-113724914D01*
X130951126Y-113724914D02*
X130808268Y-113915390D01*
X130808268Y-113915390D02*
X130665411Y-114296342D01*
X130665411Y-114296342D02*
X130665411Y-114772533D01*
X130665411Y-114772533D02*
X130808268Y-115153485D01*
X130808268Y-115153485D02*
X130951126Y-115343961D01*
X130951126Y-115343961D02*
X131093983Y-115439200D01*
X131093983Y-115439200D02*
X131379697Y-115534438D01*
X131379697Y-115534438D02*
X131665411Y-115534438D01*
X131665411Y-115534438D02*
X131951126Y-115439200D01*
X131951126Y-115439200D02*
X132093983Y-115343961D01*
X132093983Y-115343961D02*
X132236840Y-115153485D01*
X132236840Y-115153485D02*
X132379697Y-114772533D01*
X132379697Y-114772533D02*
X132379697Y-114296342D01*
X132379697Y-114296342D02*
X132236840Y-113915390D01*
X132236840Y-113915390D02*
X132093983Y-113724914D01*
X132093983Y-113724914D02*
X131951126Y-113629676D01*
X131951126Y-113629676D02*
X131665411Y-113534438D01*
X127522554Y-114582057D02*
X127665411Y-114486819D01*
X127665411Y-114486819D02*
X127951125Y-114391580D01*
X127951125Y-114391580D02*
X128236840Y-114391580D01*
X128236840Y-114391580D02*
X128522554Y-114486819D01*
X128522554Y-114486819D02*
X128665411Y-114582057D01*
X128665411Y-114582057D02*
X128808268Y-114772533D01*
X128808268Y-114772533D02*
X128808268Y-114963009D01*
X128808268Y-114963009D02*
X128665411Y-115153485D01*
X128665411Y-115153485D02*
X128522554Y-115248723D01*
X128522554Y-115248723D02*
X128236840Y-115343961D01*
X128236840Y-115343961D02*
X127951125Y-115343961D01*
X127951125Y-115343961D02*
X127665411Y-115248723D01*
X127665411Y-115248723D02*
X127522554Y-115153485D01*
X127522554Y-114391580D02*
X127522554Y-115153485D01*
X127522554Y-115153485D02*
X127379697Y-115248723D01*
X127379697Y-115248723D02*
X127236840Y-115248723D01*
X127236840Y-115248723D02*
X126951125Y-115153485D01*
X126951125Y-115153485D02*
X126808268Y-114963009D01*
X126808268Y-114963009D02*
X126808268Y-114486819D01*
X126808268Y-114486819D02*
X127093983Y-114201104D01*
X127093983Y-114201104D02*
X127522554Y-114010628D01*
X127522554Y-114010628D02*
X128093983Y-113915390D01*
X128093983Y-113915390D02*
X128665411Y-114010628D01*
X128665411Y-114010628D02*
X129093983Y-114201104D01*
X129093983Y-114201104D02*
X129379697Y-114486819D01*
X129379697Y-114486819D02*
X129522554Y-114867771D01*
X129522554Y-114867771D02*
X129379697Y-115248723D01*
X129379697Y-115248723D02*
X129093983Y-115534438D01*
X129093983Y-115534438D02*
X128665411Y-115724914D01*
X128665411Y-115724914D02*
X128093983Y-115820152D01*
X128093983Y-115820152D02*
X127522554Y-115724914D01*
X127522554Y-115724914D02*
X127093983Y-115534438D01*
X124236840Y-114201104D02*
X124236840Y-115820152D01*
X124236840Y-115820152D02*
X124379697Y-116010628D01*
X124379697Y-116010628D02*
X124522554Y-116105866D01*
X124522554Y-116105866D02*
X124808268Y-116201104D01*
X124808268Y-116201104D02*
X125236840Y-116201104D01*
X125236840Y-116201104D02*
X125522554Y-116105866D01*
X124236840Y-115439200D02*
X124522554Y-115534438D01*
X124522554Y-115534438D02*
X125093982Y-115534438D01*
X125093982Y-115534438D02*
X125379697Y-115439200D01*
X125379697Y-115439200D02*
X125522554Y-115343961D01*
X125522554Y-115343961D02*
X125665411Y-115153485D01*
X125665411Y-115153485D02*
X125665411Y-114582057D01*
X125665411Y-114582057D02*
X125522554Y-114391580D01*
X125522554Y-114391580D02*
X125379697Y-114296342D01*
X125379697Y-114296342D02*
X125093982Y-114201104D01*
X125093982Y-114201104D02*
X124522554Y-114201104D01*
X124522554Y-114201104D02*
X124236840Y-114296342D01*
X122808268Y-115534438D02*
X122808268Y-114201104D01*
X122808268Y-114391580D02*
X122665411Y-114296342D01*
X122665411Y-114296342D02*
X122379696Y-114201104D01*
X122379696Y-114201104D02*
X121951125Y-114201104D01*
X121951125Y-114201104D02*
X121665411Y-114296342D01*
X121665411Y-114296342D02*
X121522554Y-114486819D01*
X121522554Y-114486819D02*
X121522554Y-115534438D01*
X121522554Y-114486819D02*
X121379696Y-114296342D01*
X121379696Y-114296342D02*
X121093982Y-114201104D01*
X121093982Y-114201104D02*
X120665411Y-114201104D01*
X120665411Y-114201104D02*
X120379696Y-114296342D01*
X120379696Y-114296342D02*
X120236839Y-114486819D01*
X120236839Y-114486819D02*
X120236839Y-115534438D01*
X117522554Y-115534438D02*
X117522554Y-114486819D01*
X117522554Y-114486819D02*
X117665411Y-114296342D01*
X117665411Y-114296342D02*
X117951125Y-114201104D01*
X117951125Y-114201104D02*
X118522554Y-114201104D01*
X118522554Y-114201104D02*
X118808268Y-114296342D01*
X117522554Y-115439200D02*
X117808268Y-115534438D01*
X117808268Y-115534438D02*
X118522554Y-115534438D01*
X118522554Y-115534438D02*
X118808268Y-115439200D01*
X118808268Y-115439200D02*
X118951125Y-115248723D01*
X118951125Y-115248723D02*
X118951125Y-115058247D01*
X118951125Y-115058247D02*
X118808268Y-114867771D01*
X118808268Y-114867771D02*
X118522554Y-114772533D01*
X118522554Y-114772533D02*
X117808268Y-114772533D01*
X117808268Y-114772533D02*
X117522554Y-114677295D01*
X116093982Y-115534438D02*
X116093982Y-114201104D01*
X116093982Y-113534438D02*
X116236839Y-113629676D01*
X116236839Y-113629676D02*
X116093982Y-113724914D01*
X116093982Y-113724914D02*
X115951125Y-113629676D01*
X115951125Y-113629676D02*
X116093982Y-113534438D01*
X116093982Y-113534438D02*
X116093982Y-113724914D01*
X114236839Y-115534438D02*
X114522554Y-115439200D01*
X114522554Y-115439200D02*
X114665411Y-115248723D01*
X114665411Y-115248723D02*
X114665411Y-113534438D01*
X113093982Y-115343961D02*
X112951125Y-115439200D01*
X112951125Y-115439200D02*
X113093982Y-115534438D01*
X113093982Y-115534438D02*
X113236839Y-115439200D01*
X113236839Y-115439200D02*
X113093982Y-115343961D01*
X113093982Y-115343961D02*
X113093982Y-115534438D01*
X110379697Y-115439200D02*
X110665411Y-115534438D01*
X110665411Y-115534438D02*
X111236839Y-115534438D01*
X111236839Y-115534438D02*
X111522554Y-115439200D01*
X111522554Y-115439200D02*
X111665411Y-115343961D01*
X111665411Y-115343961D02*
X111808268Y-115153485D01*
X111808268Y-115153485D02*
X111808268Y-114582057D01*
X111808268Y-114582057D02*
X111665411Y-114391580D01*
X111665411Y-114391580D02*
X111522554Y-114296342D01*
X111522554Y-114296342D02*
X111236839Y-114201104D01*
X111236839Y-114201104D02*
X110665411Y-114201104D01*
X110665411Y-114201104D02*
X110379697Y-114296342D01*
X108665410Y-115534438D02*
X108951125Y-115439200D01*
X108951125Y-115439200D02*
X109093982Y-115343961D01*
X109093982Y-115343961D02*
X109236839Y-115153485D01*
X109236839Y-115153485D02*
X109236839Y-114582057D01*
X109236839Y-114582057D02*
X109093982Y-114391580D01*
X109093982Y-114391580D02*
X108951125Y-114296342D01*
X108951125Y-114296342D02*
X108665410Y-114201104D01*
X108665410Y-114201104D02*
X108236839Y-114201104D01*
X108236839Y-114201104D02*
X107951125Y-114296342D01*
X107951125Y-114296342D02*
X107808268Y-114391580D01*
X107808268Y-114391580D02*
X107665410Y-114582057D01*
X107665410Y-114582057D02*
X107665410Y-115153485D01*
X107665410Y-115153485D02*
X107808268Y-115343961D01*
X107808268Y-115343961D02*
X107951125Y-115439200D01*
X107951125Y-115439200D02*
X108236839Y-115534438D01*
X108236839Y-115534438D02*
X108665410Y-115534438D01*
X106379696Y-115534438D02*
X106379696Y-114201104D01*
X106379696Y-114391580D02*
X106236839Y-114296342D01*
X106236839Y-114296342D02*
X105951124Y-114201104D01*
X105951124Y-114201104D02*
X105522553Y-114201104D01*
X105522553Y-114201104D02*
X105236839Y-114296342D01*
X105236839Y-114296342D02*
X105093982Y-114486819D01*
X105093982Y-114486819D02*
X105093982Y-115534438D01*
X105093982Y-114486819D02*
X104951124Y-114296342D01*
X104951124Y-114296342D02*
X104665410Y-114201104D01*
X104665410Y-114201104D02*
X104236839Y-114201104D01*
X104236839Y-114201104D02*
X103951124Y-114296342D01*
X103951124Y-114296342D02*
X103808267Y-114486819D01*
X103808267Y-114486819D02*
X103808267Y-115534438D01*
D12*
G36*
X164019387Y-138690587D02*
G01*
X164426774Y-138799076D01*
X164771048Y-139012888D01*
X165029911Y-139301584D01*
X165181065Y-139634729D01*
X165202212Y-139981885D01*
X165071053Y-140312615D01*
X164944941Y-140475418D01*
X164626138Y-140735961D01*
X164194872Y-140904265D01*
X164005116Y-140948289D01*
X163708783Y-140964677D01*
X163431561Y-140881540D01*
X163100497Y-140684211D01*
X162848157Y-140466316D01*
X162623090Y-140113566D01*
X162547187Y-139730499D01*
X162633520Y-139354344D01*
X162767114Y-139161432D01*
X163075625Y-138916763D01*
X163465202Y-138746774D01*
X163877261Y-138683084D01*
X164019387Y-138690587D01*
G37*
G36*
X173265151Y-136055379D02*
G01*
X173533758Y-136249468D01*
X173731332Y-136531224D01*
X173801710Y-136881373D01*
X173733418Y-137308220D01*
X173526367Y-137831301D01*
X173492570Y-137966004D01*
X173500993Y-138255809D01*
X173573528Y-138690020D01*
X173672412Y-139244110D01*
X173761080Y-140136461D01*
X173741086Y-140912733D01*
X173613548Y-141565013D01*
X173379583Y-142085383D01*
X173040311Y-142465930D01*
X172849616Y-142577178D01*
X172647512Y-142587220D01*
X172520645Y-142449938D01*
X172520296Y-142358437D01*
X172567174Y-142133722D01*
X172655574Y-141846785D01*
X172711212Y-141654809D01*
X172790762Y-141177291D01*
X172822840Y-140645893D01*
X172804685Y-140135896D01*
X172733533Y-139722586D01*
X172685706Y-139537609D01*
X172612317Y-139216805D01*
X172538687Y-138863867D01*
X172533241Y-138836503D01*
X172457910Y-138520011D01*
X172359216Y-138290363D01*
X172198315Y-138080443D01*
X171936362Y-137823133D01*
X171805782Y-137698405D01*
X171582121Y-137451720D01*
X171458609Y-137238912D01*
X171402169Y-137009610D01*
X171392591Y-136840300D01*
X171482405Y-136496234D01*
X171729569Y-136239649D01*
X172132130Y-136073053D01*
X172517360Y-135992916D01*
X172937689Y-135971289D01*
X173265151Y-136055379D01*
G37*
G36*
X166472961Y-127289813D02*
G01*
X166462155Y-127418872D01*
X166410439Y-127713484D01*
X166301787Y-127942083D01*
X166100795Y-128190341D01*
X165966538Y-128343643D01*
X165822840Y-128522768D01*
X165767045Y-128615021D01*
X165769244Y-128623004D01*
X165844146Y-128734762D01*
X166004159Y-128937260D01*
X166220057Y-129193198D01*
X166352342Y-129348864D01*
X166661079Y-129756837D01*
X166870346Y-130137714D01*
X166998364Y-130542972D01*
X167063356Y-131024091D01*
X167079528Y-131511465D01*
X167083546Y-131632550D01*
X167089371Y-132672052D01*
X168710592Y-132727528D01*
X169833608Y-132789277D01*
X170943448Y-132912357D01*
X171912001Y-133098591D01*
X172756271Y-133354434D01*
X173493261Y-133686342D01*
X174139975Y-134100770D01*
X174713416Y-134604175D01*
X175230590Y-135203013D01*
X175263823Y-135247045D01*
X175751608Y-136029098D01*
X176116379Y-136909343D01*
X176360887Y-137898706D01*
X176487880Y-139008113D01*
X176496456Y-139878111D01*
X176500107Y-140248492D01*
X176455376Y-140992533D01*
X176330324Y-141881569D01*
X176120781Y-142655096D01*
X175815184Y-143343909D01*
X175401969Y-143978801D01*
X174869572Y-144590566D01*
X174609252Y-144849913D01*
X174369375Y-145063533D01*
X174120692Y-145247361D01*
X173824175Y-145427359D01*
X173440794Y-145629487D01*
X172931521Y-145879707D01*
X172671378Y-146007928D01*
X172262357Y-146220808D01*
X171936721Y-146404979D01*
X171721430Y-146544846D01*
X171643443Y-146624813D01*
X171666113Y-146719147D01*
X171748836Y-146953587D01*
X171878020Y-147281765D01*
X172038695Y-147664315D01*
X172169405Y-147969928D01*
X172321211Y-148333652D01*
X172436248Y-148619562D01*
X172496574Y-148783794D01*
X172557687Y-148924382D01*
X172709327Y-149137720D01*
X172712783Y-149141254D01*
X172772216Y-149227005D01*
X172840072Y-149377231D01*
X172922003Y-149610480D01*
X173023658Y-149945300D01*
X173150687Y-150400236D01*
X173308740Y-150993837D01*
X173503467Y-151744650D01*
X173578750Y-152000434D01*
X173733451Y-152434968D01*
X173900720Y-152829347D01*
X174002467Y-153052706D01*
X174394038Y-154169184D01*
X174636515Y-155379026D01*
X174693707Y-156076519D01*
X174654870Y-156675266D01*
X174510173Y-157148834D01*
X174255257Y-157511145D01*
X173885761Y-157776122D01*
X173781523Y-157827051D01*
X173576719Y-157894037D01*
X173350824Y-157900598D01*
X173027042Y-157853667D01*
X172897888Y-157824449D01*
X172529647Y-157706758D01*
X172102445Y-157536976D01*
X171683805Y-157340880D01*
X170866400Y-156922302D01*
X170293015Y-157083186D01*
X169719631Y-157244069D01*
X169780121Y-158179702D01*
X169798560Y-158553118D01*
X169792120Y-159082008D01*
X169731206Y-159492173D01*
X169609060Y-159819542D01*
X169418923Y-160100043D01*
X169397007Y-160125280D01*
X169052511Y-160381001D01*
X168614415Y-160501371D01*
X168103806Y-160489233D01*
X167541769Y-160347426D01*
X166949389Y-160078794D01*
X166347751Y-159686176D01*
X166069737Y-159475702D01*
X165489032Y-159875894D01*
X165177941Y-160066101D01*
X164597187Y-160346782D01*
X163941576Y-160597347D01*
X163274815Y-160794402D01*
X162660612Y-160914551D01*
X162257015Y-160956464D01*
X161575385Y-160990938D01*
X160878515Y-160989468D01*
X160230685Y-160952768D01*
X159696171Y-160881555D01*
X159323755Y-160806373D01*
X158786424Y-160688653D01*
X158254104Y-160562912D01*
X157761223Y-160437968D01*
X157342208Y-160322638D01*
X157031486Y-160225739D01*
X156863487Y-160156087D01*
X156726575Y-160084953D01*
X156457910Y-159966715D01*
X156141993Y-159842073D01*
X155897200Y-159743339D01*
X155530569Y-159573505D01*
X155238078Y-159413744D01*
X154984183Y-159254760D01*
X154544698Y-158976961D01*
X154206418Y-158757741D01*
X153933276Y-158572991D01*
X153689205Y-158398599D01*
X153438141Y-158210454D01*
X153166178Y-157978922D01*
X152746563Y-157541817D01*
X152326497Y-157022826D01*
X151928006Y-156456238D01*
X151573114Y-155876341D01*
X151283847Y-155317423D01*
X151082230Y-154813772D01*
X150990288Y-154399678D01*
X150972922Y-154232702D01*
X150918514Y-153879315D01*
X150853874Y-153597675D01*
X150819665Y-153470727D01*
X150734382Y-152932036D01*
X150699893Y-152280808D01*
X150707006Y-151890599D01*
X151616528Y-151890599D01*
X151629263Y-152477152D01*
X151673502Y-153021814D01*
X151749065Y-153479179D01*
X151855774Y-153803839D01*
X151887270Y-153870102D01*
X151987245Y-154141413D01*
X152027544Y-154357747D01*
X152046405Y-154540647D01*
X152177249Y-154958570D01*
X152415029Y-155443440D01*
X152738898Y-155963273D01*
X153128011Y-156486081D01*
X153561519Y-156979880D01*
X154018577Y-157412682D01*
X154073584Y-157457897D01*
X154352192Y-157664156D01*
X154711814Y-157906530D01*
X155119470Y-158165413D01*
X155542179Y-158421195D01*
X155946964Y-158654269D01*
X156300843Y-158845027D01*
X156570838Y-158973860D01*
X156723968Y-159021162D01*
X156724713Y-159021170D01*
X156850729Y-159058536D01*
X157087656Y-159154681D01*
X157384819Y-159289062D01*
X157724842Y-159425024D01*
X158189493Y-159566480D01*
X158627942Y-159660713D01*
X158653808Y-159664722D01*
X159016056Y-159728420D01*
X159329933Y-159796077D01*
X159530035Y-159853703D01*
X159534882Y-159855524D01*
X159718086Y-159890232D01*
X160038955Y-159921297D01*
X160456449Y-159947352D01*
X160929532Y-159967029D01*
X161417167Y-159978959D01*
X161878315Y-159981776D01*
X162271939Y-159974111D01*
X162557002Y-159954596D01*
X162624739Y-159945480D01*
X162865694Y-159895935D01*
X163008960Y-159839736D01*
X163033075Y-159824830D01*
X163209775Y-159761130D01*
X163462063Y-159702975D01*
X163718514Y-159636958D01*
X164145639Y-159470072D01*
X164581869Y-159248229D01*
X164965586Y-159003871D01*
X165235172Y-158769441D01*
X165434256Y-158474784D01*
X165509508Y-158124358D01*
X165406904Y-157767686D01*
X165125753Y-157396099D01*
X164980146Y-157260891D01*
X164627866Y-156996720D01*
X164276015Y-156795141D01*
X163966865Y-156641000D01*
X163731829Y-156476120D01*
X163622809Y-156308576D01*
X163613309Y-156111013D01*
X163625277Y-156047532D01*
X163683512Y-155953294D01*
X163824414Y-155912844D01*
X164096834Y-155905408D01*
X164138343Y-155906160D01*
X164640841Y-155994782D01*
X165165870Y-156236345D01*
X165732650Y-156639476D01*
X166074708Y-156991850D01*
X166375180Y-157531795D01*
X166536282Y-158185597D01*
X166566306Y-158358301D01*
X166649370Y-158645015D01*
X166747312Y-158832576D01*
X166956510Y-159008566D01*
X167288747Y-159206356D01*
X167670011Y-159384663D01*
X168035913Y-159513610D01*
X168322066Y-159563317D01*
X168539839Y-159546801D01*
X168688976Y-159458520D01*
X168813000Y-159247903D01*
X168845204Y-159177022D01*
X168901406Y-159004766D01*
X168920737Y-158806765D01*
X168905183Y-158532228D01*
X168856733Y-158130363D01*
X168799650Y-157680535D01*
X168762018Y-157289580D01*
X168758774Y-157017459D01*
X168792528Y-156832001D01*
X168865887Y-156701038D01*
X168981461Y-156592401D01*
X169107739Y-156515158D01*
X169397730Y-156393902D01*
X169727191Y-156300362D01*
X169950049Y-156247398D01*
X170196980Y-156173637D01*
X170327294Y-156114332D01*
X170375829Y-156090611D01*
X170574270Y-156053055D01*
X170847972Y-156038244D01*
X171148717Y-156062727D01*
X171416811Y-156157337D01*
X171728556Y-156351574D01*
X171931575Y-156485021D01*
X172205550Y-156639498D01*
X172406419Y-156723153D01*
X172570559Y-156781031D01*
X172688181Y-156861781D01*
X172747861Y-156897870D01*
X172942736Y-156931533D01*
X173199089Y-156937697D01*
X173445586Y-156916022D01*
X173610893Y-156866170D01*
X173685044Y-156766442D01*
X173754370Y-156506459D01*
X173786802Y-156138156D01*
X173779441Y-155701394D01*
X173729390Y-155236029D01*
X173711765Y-155136174D01*
X173626553Y-154760213D01*
X173499646Y-154283110D01*
X173345080Y-153755836D01*
X173176888Y-153229362D01*
X173090997Y-152969311D01*
X172946982Y-152516592D01*
X172831608Y-152132003D01*
X172754976Y-151849804D01*
X172727188Y-151704250D01*
X172712166Y-151632362D01*
X172632741Y-151405247D01*
X172496614Y-151067389D01*
X172316900Y-150650845D01*
X172106716Y-150187674D01*
X171982884Y-149918643D01*
X171771876Y-149448609D01*
X171589865Y-149028789D01*
X171453045Y-148696874D01*
X171377610Y-148490557D01*
X171336689Y-148356170D01*
X171269503Y-148151449D01*
X171193670Y-147952348D01*
X171091518Y-147716852D01*
X170945378Y-147402942D01*
X170737581Y-146968601D01*
X170656505Y-146799697D01*
X170511913Y-146488758D01*
X170434367Y-146286206D01*
X170415811Y-146153459D01*
X170448189Y-146051935D01*
X170523444Y-145943052D01*
X170632005Y-145836289D01*
X170886330Y-145664241D01*
X171190533Y-145513658D01*
X171318862Y-145460462D01*
X171786228Y-145255352D01*
X172285380Y-145022174D01*
X172776705Y-144780737D01*
X173220594Y-144550849D01*
X173577436Y-144352317D01*
X173807619Y-144204950D01*
X173933153Y-144108953D01*
X174418134Y-143684406D01*
X174761670Y-143272036D01*
X174990433Y-142841091D01*
X175075191Y-142631138D01*
X175206789Y-142311166D01*
X175307821Y-142072445D01*
X175363668Y-141915918D01*
X175456677Y-141511008D01*
X175530270Y-141002862D01*
X175579332Y-140441793D01*
X175598747Y-139878111D01*
X175583399Y-139362129D01*
X175574408Y-139244498D01*
X175522567Y-138717263D01*
X175458150Y-138242785D01*
X175386808Y-137853001D01*
X175314192Y-137579848D01*
X175245955Y-137455263D01*
X175208292Y-137413150D01*
X175166874Y-137254084D01*
X175154453Y-137167871D01*
X175062640Y-136904667D01*
X174902496Y-136564979D01*
X174699180Y-136196015D01*
X174477847Y-135844985D01*
X174263653Y-135559097D01*
X174131186Y-135413870D01*
X173696454Y-135030027D01*
X173193688Y-134688212D01*
X172668038Y-134413283D01*
X172164657Y-134230097D01*
X171728695Y-134163511D01*
X171635478Y-134152262D01*
X171515395Y-134086861D01*
X171457126Y-134047463D01*
X171231871Y-133987242D01*
X170866815Y-133933000D01*
X170387273Y-133886594D01*
X169818557Y-133849882D01*
X169185981Y-133824722D01*
X168514860Y-133812971D01*
X167830506Y-133816485D01*
X167821836Y-133816635D01*
X167209065Y-133828508D01*
X166750315Y-133841906D01*
X166419159Y-133859695D01*
X166189167Y-133884738D01*
X166033911Y-133919900D01*
X165926963Y-133968046D01*
X165841894Y-134032042D01*
X165782831Y-134081573D01*
X165293633Y-134368868D01*
X164699804Y-134548829D01*
X164040300Y-134616929D01*
X163354077Y-134568643D01*
X162680088Y-134399443D01*
X162360584Y-134272673D01*
X162072228Y-134132069D01*
X161892695Y-134013758D01*
X161834690Y-133970215D01*
X161691586Y-133906249D01*
X161466388Y-133846084D01*
X161134604Y-133784722D01*
X160671744Y-133717165D01*
X160053317Y-133638416D01*
X159579325Y-133582656D01*
X159043260Y-133524623D01*
X158571161Y-133478784D01*
X158201466Y-133448833D01*
X157972611Y-133438464D01*
X157756041Y-133448635D01*
X157274837Y-133550729D01*
X156903948Y-133752245D01*
X156670643Y-134040573D01*
X156610953Y-134175567D01*
X156570347Y-134345108D01*
X156591424Y-134535632D01*
X156674558Y-134821478D01*
X156801446Y-135115981D01*
X157087823Y-135557113D01*
X157454842Y-135970344D01*
X157853632Y-136294611D01*
X157968540Y-136364703D01*
X158242186Y-136520591D01*
X158596462Y-136714853D01*
X158983526Y-136920969D01*
X159075389Y-136969251D01*
X159428459Y-137160202D01*
X159653781Y-137299434D01*
X159779670Y-137410675D01*
X159834440Y-137517655D01*
X159846405Y-137644100D01*
X159846405Y-137914757D01*
X159172909Y-137914757D01*
X158499413Y-137914757D01*
X158262570Y-138954258D01*
X158197868Y-139214158D01*
X158046410Y-139726310D01*
X157863036Y-140262634D01*
X157663381Y-140783342D01*
X157463080Y-141248648D01*
X157277769Y-141618764D01*
X157123083Y-141853903D01*
X157052151Y-141948243D01*
X156999074Y-142066873D01*
X156978091Y-142119336D01*
X156871606Y-142285404D01*
X156705302Y-142507482D01*
X156620665Y-142615893D01*
X156385515Y-142929729D01*
X156185551Y-143211907D01*
X156105082Y-143327223D01*
X155849465Y-143670694D01*
X155543045Y-144061620D01*
X155234730Y-144438369D01*
X154973431Y-144739312D01*
X154786678Y-144979632D01*
X154617783Y-145254163D01*
X154579718Y-145320706D01*
X154431003Y-145551242D01*
X154208128Y-145877237D01*
X153934170Y-146265265D01*
X153632204Y-146681897D01*
X153402796Y-146996038D01*
X153030374Y-147519144D01*
X152744307Y-147946606D01*
X152527107Y-148308629D01*
X152361284Y-148635413D01*
X152229349Y-148957163D01*
X152113814Y-149304080D01*
X152109745Y-149317353D01*
X152002713Y-149655896D01*
X151906413Y-149942944D01*
X151841247Y-150117604D01*
X151769133Y-150333664D01*
X151686284Y-150773449D01*
X151635475Y-151307563D01*
X151616528Y-151890599D01*
X150707006Y-151890599D01*
X150712969Y-151563454D01*
X150770384Y-150826386D01*
X150868908Y-150116013D01*
X151005314Y-149478747D01*
X151176374Y-148961000D01*
X151291633Y-148681787D01*
X151441134Y-148302621D01*
X151555665Y-147993404D01*
X151657169Y-147772429D01*
X151861774Y-147441989D01*
X152101310Y-147134685D01*
X152262951Y-146941087D01*
X152499536Y-146631605D01*
X152760369Y-146270392D01*
X153023344Y-145890186D01*
X153266358Y-145523725D01*
X153467306Y-145203746D01*
X153604085Y-144962987D01*
X153654590Y-144834185D01*
X153701014Y-144735313D01*
X153842390Y-144542245D01*
X154045582Y-144306080D01*
X154157926Y-144181751D01*
X154581167Y-143682855D01*
X155027947Y-143115962D01*
X155474317Y-142514917D01*
X155896331Y-141913566D01*
X156270038Y-141345756D01*
X156571491Y-140845332D01*
X156776742Y-140446140D01*
X157177229Y-139378119D01*
X157486575Y-138102872D01*
X157534259Y-137821400D01*
X157566791Y-137568696D01*
X157560581Y-137414943D01*
X157512101Y-137315063D01*
X157417826Y-137223979D01*
X157115157Y-136961191D01*
X156671423Y-136559530D01*
X156340945Y-136230945D01*
X156103394Y-135952889D01*
X155938441Y-135702813D01*
X155825754Y-135458168D01*
X155715283Y-135072302D01*
X155648373Y-134500335D01*
X155681987Y-133945598D01*
X155816438Y-133474396D01*
X156014206Y-133160552D01*
X156375248Y-132806977D01*
X156807854Y-132535651D01*
X157251552Y-132392179D01*
X157345391Y-132383111D01*
X157653380Y-132376756D01*
X158077360Y-132386309D01*
X158574129Y-132410468D01*
X159100483Y-132447931D01*
X159267014Y-132461291D01*
X159797153Y-132496666D01*
X160211875Y-132512529D01*
X160489801Y-132508374D01*
X160609551Y-132483694D01*
X160634928Y-132409252D01*
X160639245Y-132187261D01*
X160604887Y-131878862D01*
X160603470Y-131869965D01*
X160571773Y-131224433D01*
X161609459Y-131224433D01*
X161662800Y-131782894D01*
X161878218Y-132324904D01*
X161974386Y-132482774D01*
X162249796Y-132827166D01*
X162597585Y-133100733D01*
X163071333Y-133349482D01*
X163544779Y-133491262D01*
X164118735Y-133503928D01*
X164693610Y-133365929D01*
X165233914Y-133086363D01*
X165704159Y-132674332D01*
X165831403Y-132507693D01*
X166048111Y-132040944D01*
X166147289Y-131511465D01*
X166122013Y-130977001D01*
X165965362Y-130495301D01*
X165694725Y-130091134D01*
X165286597Y-129696637D01*
X164829494Y-129426169D01*
X164678815Y-129376017D01*
X164243972Y-129302557D01*
X163747125Y-129287105D01*
X163264313Y-129329526D01*
X162871578Y-129429683D01*
X162799281Y-129460237D01*
X162313106Y-129767422D01*
X161945492Y-130184988D01*
X161707316Y-130681228D01*
X161609459Y-131224433D01*
X160571773Y-131224433D01*
X160566720Y-131121516D01*
X160694584Y-130421251D01*
X160981172Y-129788208D01*
X161420596Y-129241430D01*
X161504433Y-129156962D01*
X161722671Y-128875586D01*
X161786874Y-128656851D01*
X161693459Y-128510355D01*
X161646791Y-128470154D01*
X161504872Y-128309589D01*
X161331893Y-128084697D01*
X161150379Y-127758929D01*
X161058826Y-127351430D01*
X161085318Y-127119380D01*
X161638225Y-127119380D01*
X161643216Y-127386568D01*
X161738738Y-127673422D01*
X161909484Y-127911541D01*
X161977682Y-127964651D01*
X162238142Y-128096032D01*
X162542979Y-128185901D01*
X162552698Y-128187709D01*
X162834142Y-128224269D01*
X163021961Y-128195319D01*
X163193027Y-128089452D01*
X163194704Y-128088130D01*
X163351666Y-127931880D01*
X163416867Y-127802697D01*
X163409907Y-127788880D01*
X164218773Y-127788880D01*
X164235836Y-127802697D01*
X164415378Y-127948082D01*
X164694073Y-128074522D01*
X165029876Y-128079101D01*
X165371794Y-127978728D01*
X165673446Y-127794082D01*
X165888451Y-127545846D01*
X165970426Y-127254701D01*
X165961400Y-127133078D01*
X165857534Y-126891372D01*
X165659873Y-126768662D01*
X165396551Y-126762007D01*
X165095704Y-126868468D01*
X164785467Y-127085104D01*
X164493974Y-127408976D01*
X164218773Y-127788880D01*
X163409907Y-127788880D01*
X163354483Y-127678860D01*
X163191606Y-127486729D01*
X162972374Y-127271104D01*
X162740949Y-127075363D01*
X162541493Y-126942882D01*
X162458866Y-126906730D01*
X162166667Y-126847474D01*
X161888999Y-126871685D01*
X161700252Y-126976399D01*
X161638225Y-127119380D01*
X161085318Y-127119380D01*
X161102218Y-126971346D01*
X161260903Y-126644106D01*
X161515227Y-126395136D01*
X161845539Y-126249863D01*
X162232186Y-126233715D01*
X162655517Y-126372118D01*
X162746676Y-126423594D01*
X163049924Y-126637089D01*
X163321610Y-126879078D01*
X163432583Y-126988501D01*
X163616694Y-127142789D01*
X163732625Y-127203369D01*
X163805694Y-127170304D01*
X163977607Y-127036269D01*
X164189448Y-126834353D01*
X164438623Y-126594882D01*
X164764824Y-126362534D01*
X165099217Y-126242929D01*
X165498335Y-126209063D01*
X165537943Y-126209210D01*
X165830316Y-126231307D01*
X166035505Y-126312560D01*
X166236556Y-126483884D01*
X166371720Y-126629247D01*
X166459976Y-126783595D01*
X166487053Y-126981044D01*
X166474563Y-127254701D01*
X166472961Y-127289813D01*
G37*
%LPC*%
D13*
X168750000Y-127500000D03*
X176250000Y-127500000D03*
D14*
X138880000Y-145000000D03*
D15*
X146500000Y-145000000D03*
D13*
X182600000Y-118250000D03*
X182600000Y-125750000D03*
D16*
X254000000Y-165000000D03*
D14*
X151880000Y-119000000D03*
D15*
X159500000Y-119000000D03*
D13*
X235000000Y-140500000D03*
X235000000Y-148000000D03*
X201000000Y-138000000D03*
X196000000Y-138000000D03*
D16*
X105000000Y-118000000D03*
D13*
X183750000Y-138000000D03*
X191250000Y-138000000D03*
X140000000Y-129500000D03*
X145000000Y-129500000D03*
X227000000Y-148500000D03*
X222000000Y-148500000D03*
D14*
X129810000Y-133500000D03*
D15*
X122190000Y-133500000D03*
D17*
X243000000Y-163280000D03*
D18*
X243000000Y-158200000D03*
D17*
X118790000Y-122500000D03*
D18*
X113710000Y-122500000D03*
D19*
X201600000Y-118400000D03*
X196600000Y-118400000D03*
X191600000Y-118400000D03*
D13*
X233750000Y-131000000D03*
X238750000Y-131000000D03*
D14*
X127000000Y-120690000D03*
D15*
X127000000Y-128310000D03*
D14*
X241500000Y-140500000D03*
D15*
X241500000Y-148120000D03*
D18*
X113385000Y-155085000D03*
X129615000Y-155085000D03*
X113385000Y-148735000D03*
X129615000Y-148735000D03*
X113385000Y-161435000D03*
X129615000Y-161435000D03*
D13*
X247750000Y-132000000D03*
X252750000Y-132000000D03*
D16*
X253500000Y-118000000D03*
D13*
X116500000Y-132500000D03*
X111500000Y-132500000D03*
X227000000Y-139000000D03*
X222000000Y-139000000D03*
D14*
X218810000Y-119500000D03*
D15*
X211190000Y-119500000D03*
D19*
X159200000Y-163400000D03*
X164200000Y-163400000D03*
X169200000Y-163400000D03*
D14*
X183190000Y-130500000D03*
D15*
X190810000Y-130500000D03*
D19*
X179600000Y-163400000D03*
X184600000Y-163400000D03*
X189600000Y-163400000D03*
D17*
X219800000Y-161600000D03*
D18*
X224880000Y-161600000D03*
X229960000Y-161600000D03*
D14*
X194880000Y-130500000D03*
D15*
X202500000Y-130500000D03*
D20*
X208380000Y-139200000D03*
D15*
X208380000Y-141740000D03*
X208380000Y-144280000D03*
X208380000Y-146820000D03*
X216000000Y-146820000D03*
X216000000Y-144280000D03*
X216000000Y-141740000D03*
X216000000Y-139200000D03*
D13*
X193250000Y-148500000D03*
X200750000Y-148500000D03*
X145000000Y-120000000D03*
X140000000Y-120000000D03*
D14*
X168500000Y-134500000D03*
D15*
X168500000Y-142120000D03*
D13*
X168000000Y-148500000D03*
X173000000Y-148500000D03*
D14*
X176310000Y-119000000D03*
D15*
X168690000Y-119000000D03*
D14*
X186310000Y-148500000D03*
D15*
X178690000Y-148500000D03*
D20*
X246450000Y-141700000D03*
D15*
X246450000Y-144240000D03*
X246450000Y-146780000D03*
X246450000Y-149320000D03*
X254070000Y-149320000D03*
X254070000Y-146780000D03*
X254070000Y-144240000D03*
X254070000Y-141700000D03*
D13*
X176500000Y-140500000D03*
X176500000Y-135500000D03*
X234000000Y-121000000D03*
X239000000Y-121000000D03*
D21*
X210000000Y-126500000D03*
D22*
X220160000Y-126500000D03*
D19*
X200800000Y-163200000D03*
X205800000Y-163200000D03*
X210800000Y-163200000D03*
D14*
X138880000Y-138000000D03*
D15*
X146500000Y-138000000D03*
D16*
X105000000Y-165000000D03*
D19*
X139000000Y-163400000D03*
X144000000Y-163400000D03*
X149000000Y-163400000D03*
D20*
X159500000Y-134580000D03*
D15*
X159500000Y-132040000D03*
X159500000Y-129500000D03*
X159500000Y-126960000D03*
X151880000Y-126960000D03*
X151880000Y-129500000D03*
X151880000Y-132040000D03*
X151880000Y-134580000D03*
%LPD*%
M02*
